<svg width="24" height="25" viewBox="0 0 24 25" fill="none" xmlns="http://www.w3.org/2000/svg">
<path d="M14.1213 14.8455L14.6516 14.3151L14.6516 14.3151L14.1213 14.8455ZM3.49997 15.9668H2.74997H3.49997ZM3.72745 19.4299L4.47066 19.3293L3.72745 19.4299ZM20.2725 19.4299L19.5293 19.3293L20.2725 19.4299ZM10.6975 4.70767L11.09 5.34674L10.6975 4.70767ZM13.3024 4.70767L13.695 4.0686L13.3024 4.70767ZM18.4384 20.2168H17V21.7168H18.4384V20.2168ZM15.75 18.9668V16.9668H14.25V18.9668H15.75ZM15.75 16.9668C15.75 15.9722 15.3549 15.0184 14.6516 14.3151L13.591 15.3758C14.0129 15.7978 14.25 16.3701 14.25 16.9668H15.75ZM14.6516 14.3151C13.9484 13.6119 12.9945 13.2168 12 13.2168V14.7168C12.5967 14.7168 13.169 14.9538 13.591 15.3758L14.6516 14.3151ZM12 13.2168C11.0054 13.2168 10.0516 13.6119 9.34831 14.3151L10.409 15.3758C10.8309 14.9538 11.4032 14.7168 12 14.7168V13.2168ZM9.34831 14.3151C8.64505 15.0184 8.24996 15.9722 8.24996 16.9668H9.74996C9.74996 16.3701 9.98702 15.7978 10.409 15.3758L9.34831 14.3151ZM8.24996 16.9668V18.9668H9.74996V16.9668H8.24996ZM6.99996 20.2168H5.56152V21.7168H6.99996V20.2168ZM10.3049 4.0686C9.17352 4.76357 7.48778 5.91831 5.96963 7.43647L7.03029 8.49713C8.43484 7.09258 10.0135 6.00799 11.09 5.34674L10.3049 4.0686ZM18.0303 7.43647C16.5121 5.91831 14.8264 4.76357 13.695 4.0686L12.9099 5.34674C13.9864 6.008 15.5651 7.09258 16.9696 8.49713L18.0303 7.43647ZM4.47066 19.3293C4.3574 18.4929 4.24997 17.3379 4.24997 15.9668H2.74997C2.74997 17.4153 2.86338 18.6382 2.98423 19.5306L4.47066 19.3293ZM19.75 15.9668C19.75 17.3379 19.6425 18.4929 19.5293 19.3293L21.0157 19.5306C21.1366 18.6383 21.25 17.4153 21.25 15.9668H19.75ZM5.96963 7.43647C4.32836 9.07774 3.49107 10.4337 3.09111 11.8224C2.70085 13.1774 2.74997 14.5127 2.74997 15.9668H4.24997C4.24997 14.4209 4.21489 13.3404 4.53252 12.2375C4.84046 11.1683 5.50317 10.0242 7.03029 8.49713L5.96963 7.43647ZM21.25 15.9668C21.25 14.5127 21.2991 13.1774 20.9088 11.8224C20.5088 10.4337 19.6716 9.07773 18.0303 7.43647L16.9696 8.49713C18.4967 10.0242 19.1595 11.1683 19.4674 12.2375C19.785 13.3404 19.75 14.4209 19.75 15.9668H21.25ZM5.56152 20.2168C4.97993 20.2168 4.53837 19.8293 4.47066 19.3293L2.98423 19.5306C3.16285 20.8495 4.30764 21.7168 5.56152 21.7168V20.2168ZM8.24996 18.9668C8.24996 19.6572 7.69032 20.2168 6.99996 20.2168V21.7168C8.51875 21.7168 9.74996 20.4856 9.74996 18.9668H8.24996ZM17 20.2168C16.3096 20.2168 15.75 19.6572 15.75 18.9668H14.25C14.25 20.4856 15.4812 21.7168 17 21.7168V20.2168ZM18.4384 21.7168C19.6923 21.7168 20.8371 20.8495 21.0157 19.5306L19.5293 19.3293C19.4616 19.8293 19.02 20.2168 18.4384 20.2168V21.7168ZM11.09 5.34674C11.6538 5.00043 12.3461 5.00043 12.9099 5.34674L13.695 4.0686C12.6496 3.42647 11.3503 3.42647 10.3049 4.0686L11.09 5.34674Z" fill="#E33342"/>
</svg>
